<svg width="71" height="75" viewBox="0 0 71 75" fill="none" xmlns="http://www.w3.org/2000/svg">
<path d="M60.5713 12.0848V0H19.4667L10.0342 9.43257V12.0848H0V20.8739H2.19727V14.2821H10.0342V48.6331H12.2314V10.9863H21.0205V2.19727H58.374V50.8302H2.19727V23.0711H0V61.8166H29.8094V64.853L28.0318 68.4082H19.9219C18.1044 68.4082 16.626 69.8867 16.626 71.7041V75H53.9795V71.7041C53.9795 69.8867 52.5009 68.4082 50.6836 68.4082H42.5736L40.796 64.853V61.8166H59.6193V59.6193H2.19727V53.0275H68.4082V59.6193H61.8166V61.8166H70.6055V12.0848H60.5713ZM13.7851 8.78906L18.8231 3.75103V8.78906H13.7851ZM51.7822 71.7041V72.8027H18.8232V71.7041C18.8232 71.0982 19.316 70.6055 19.9219 70.6055H50.6836C51.2895 70.6055 51.7822 71.0982 51.7822 71.7041ZM40.1171 68.4082H30.4884L32.0067 65.3717V61.8166H38.5988V65.3717L40.1171 68.4082ZM60.5713 50.8302V14.2821H68.4082V50.8302H60.5713Z" fill="white"/>
<path d="M34.2041 55.2246H36.4014V57.4219H34.2041V55.2246Z" fill="white"/>
<path d="M25.7775 14.5233L24.2237 12.9697L20.3394 16.8539L18.0088 14.5235L16.4551 16.0771L20.3394 19.9613L25.7775 14.5233Z" fill="white"/>
<path d="M20.3394 33.1449L25.7775 27.7069L24.2237 26.1533L20.3394 30.0375L18.0088 27.7069L16.4551 29.2605L20.3394 33.1449Z" fill="white"/>
<path d="M29.0278 27.1963H51.1763V29.3936H29.0278V27.1963Z" fill="white"/>
<path d="M29.0278 31.5908H46.4741V33.7881H29.0278V31.5908Z" fill="white"/>
<path d="M29.0278 40.3799H51.1763V42.5771H29.0278V40.3799Z" fill="white"/>
<path d="M29.0278 44.7744H46.4741V46.9717H29.0278V44.7744Z" fill="white"/>
<path d="M29.0278 18.4072H46.4741V20.6045H29.0278V18.4072Z" fill="white"/>
<path d="M20.3394 46.3276L25.7775 40.8897L24.2237 39.3359L20.3394 43.2203L18.0088 40.8897L16.4551 42.4435L20.3394 46.3276Z" fill="white"/>
<path d="M29.0278 14.0127H51.1763V16.21H29.0278V14.0127Z" fill="white"/>
<path d="M31.5142 6.5918H42.5005V8.78906H31.5142V6.5918Z" fill="white"/>
<path d="M64.0137 16.4795H66.2109V18.6768H64.0137V16.4795Z" fill="white"/>
<path d="M64.0137 20.874H66.2109V27.4658H64.0137V20.874Z" fill="white"/>
</svg>
