<svg width="75" height="75" viewBox="0 0 75 75" fill="none" xmlns="http://www.w3.org/2000/svg">
<path d="M69.9565 46.7509C69.4708 47.1145 69.3719 47.8031 69.7355 48.2889C71.742 50.9688 72.8027 54.1409 72.8027 57.462C72.8027 65.921 65.921 72.8027 57.462 72.8027C49.003 72.8027 42.1213 65.921 42.1213 57.462C42.1213 49.003 49.0031 42.1213 57.462 42.1213C60.7832 42.1213 63.9552 43.182 66.6352 45.1885C67.1208 45.5522 67.8095 45.4532 68.1731 44.9676C68.5368 44.482 68.4379 43.7934 67.9522 43.4297C65.186 41.3584 61.9588 40.1726 58.5608 39.9615V35.0405C67.7212 34.4714 75 26.8393 75 17.538C75 7.86738 67.1326 0 57.462 0C48.1607 0 40.5286 7.27881 39.9595 16.4394H35.0385C34.8274 13.0412 33.6416 9.81401 31.5703 7.04795C31.2066 6.56221 30.5181 6.46318 30.0324 6.82705C29.5466 7.19062 29.4478 7.87925 29.8115 8.36499C31.818 11.0449 32.8787 14.2169 32.8787 17.5381C32.8787 25.997 25.9969 32.8789 17.538 32.8789C9.0791 32.8789 2.19727 25.9969 2.19727 17.538C2.19727 9.0791 9.07895 2.19727 17.538 2.19727C20.8592 2.19727 24.0312 3.25796 26.7113 5.2645C27.197 5.62808 27.8856 5.5292 28.2492 5.04346C28.6129 4.55771 28.5141 3.86924 28.0283 3.50552C24.965 1.21216 21.3376 0 17.538 0C7.86738 0 0 7.86738 0 17.538C0 26.8395 7.27881 34.4714 16.4394 35.0405V39.9595C7.27881 40.5286 0 48.1607 0 57.462C0 67.1326 7.86738 75 17.538 75C26.8395 75 34.4714 67.7212 35.0405 58.5606H39.9595C40.5286 67.7212 48.1607 75 57.462 75C67.1326 75 75 67.1326 75 57.462C75 53.6624 73.7878 50.0348 71.4943 46.9718C71.1308 46.4862 70.4423 46.3871 69.9565 46.7509ZM57.462 2.19727C65.921 2.19727 72.8027 9.07895 72.8027 17.538C72.8027 25.997 65.921 32.8787 57.462 32.8787C49.003 32.8787 42.1213 25.9969 42.1213 17.538C42.1213 9.0791 49.0031 2.19727 57.462 2.19727ZM35.0405 18.6366H39.9595C40.506 27.4337 47.5664 34.494 56.3634 35.0405V39.9595C47.5663 40.506 40.506 47.5664 39.9595 56.3634H35.0405C34.494 47.5663 27.4336 40.506 18.6366 39.9595V35.0405C27.4336 34.494 34.494 27.4336 35.0405 18.6366ZM17.538 72.8027C9.07895 72.8027 2.19727 65.921 2.19727 57.462C2.19727 49.003 9.07895 42.1213 17.538 42.1213C25.997 42.1213 32.8787 49.0031 32.8787 57.462C32.8787 65.9209 25.9969 72.8027 17.538 72.8027Z" fill="white"/>
<path d="M26.3069 16.4551L27.1302 15.9797C27.5641 15.7292 27.7735 15.2168 27.6393 14.734C27.3955 13.8567 27.054 13.0348 26.6247 12.2911C26.1952 11.5474 25.6542 10.8408 25.0164 10.1911C24.6654 9.83354 24.117 9.75869 23.6828 10.0092L22.8596 10.4845C22.2956 10.81 21.7976 10.5929 21.6098 10.4845C21.4218 10.376 20.9849 10.0534 20.9849 9.40215V8.45147C20.9849 7.95049 20.6459 7.51279 20.1607 7.3877C19.279 7.16021 18.3966 7.04492 17.5378 7.04492C16.6789 7.04492 15.7965 7.16021 14.9148 7.3877C14.4297 7.51279 14.0907 7.95049 14.0907 8.45147V9.40215C14.0907 10.0534 13.6538 10.376 13.4658 10.4845C13.2779 10.5931 12.78 10.8102 12.216 10.4845L11.3928 10.0092C10.9586 9.75869 10.4103 9.8334 10.0592 10.1911C9.42153 10.8409 8.88056 11.5474 8.45092 12.2913C8.02158 13.035 7.68012 13.8569 7.43622 14.7342C7.30205 15.2168 7.51152 15.7294 7.9454 15.9799L8.76865 16.4552C9.33276 16.7809 9.3937 17.3207 9.3937 17.5377C9.3937 17.7547 9.33276 18.2945 8.76865 18.6201L7.9454 19.0955C7.51152 19.3459 7.30205 19.8584 7.43622 20.3412C7.68027 21.2185 8.02158 22.0404 8.45092 22.7841C8.88041 23.5278 9.42138 24.2343 10.0592 24.8841C10.4103 25.2418 10.9587 25.3167 11.3926 25.066L12.2159 24.5907C12.7798 24.265 13.2779 24.4821 13.4657 24.5907C13.6535 24.6992 14.0906 25.0218 14.0906 25.673V26.6237C14.0906 27.1247 14.4295 27.5624 14.9147 27.6875C15.7964 27.915 16.6788 28.0303 17.5376 28.0303C18.3965 28.0303 19.279 27.915 20.1606 27.6875C20.6457 27.5624 20.9847 27.1247 20.9847 26.6237V25.673C20.9847 25.0218 21.4217 24.6992 21.6096 24.5907C21.7976 24.4821 22.2953 24.265 22.8594 24.5907L23.6827 25.066C24.1164 25.3165 24.6651 25.2417 25.0161 24.8841C25.6539 24.2343 26.1949 23.5278 26.6244 22.7841C27.0537 22.0405 27.395 21.2186 27.6391 20.3413C27.7732 19.8585 27.5638 19.3461 27.1299 19.0956L26.3066 18.6203C25.7425 18.2946 25.6817 17.7548 25.6817 17.5379C25.682 17.3207 25.7428 16.7809 26.3069 16.4551ZM25.2083 20.5228L25.2593 20.5522C25.1062 20.9519 24.9265 21.3308 24.722 21.6852C24.5175 22.0395 24.279 22.3846 24.0095 22.717L23.9585 22.6875C22.8792 22.0644 21.5906 22.0644 20.5114 22.6875C19.4321 23.3105 18.7879 24.4266 18.7879 25.6728V25.7316C17.9427 25.866 17.1333 25.866 16.2881 25.7316V25.6728C16.2881 24.4266 15.6439 23.3105 14.5646 22.6875C13.4853 22.0644 12.1967 22.0644 11.1175 22.6875L11.0665 22.717C10.7972 22.3846 10.5587 22.0395 10.354 21.6852C10.1496 21.3308 9.96982 20.9519 9.81674 20.5522L9.86772 20.5228C10.947 19.8998 11.5914 18.7837 11.5914 17.5376C11.5914 16.2913 10.947 15.1754 9.86772 14.5522L9.81674 14.5228C9.96982 14.1232 10.1496 13.7442 10.354 13.3899C10.5587 13.0355 10.797 12.6904 11.0665 12.3581L11.1175 12.3875C12.1968 13.0106 13.4854 13.0106 14.5646 12.3875C15.6439 11.7645 16.2881 10.6484 16.2881 9.4023V9.34341C17.1333 9.20908 17.9427 9.20908 18.7879 9.34341V9.4023C18.7879 10.6484 19.4321 11.7645 20.5114 12.3875C21.5906 13.0106 22.8792 13.0106 23.9586 12.3875L24.0095 12.3581C24.2789 12.6904 24.5173 13.0355 24.722 13.3899C24.9265 13.7442 25.1062 14.1232 25.2593 14.5228L25.2083 14.5522C24.129 15.1752 23.4848 16.2913 23.4848 17.5376C23.4848 18.7837 24.129 19.8998 25.2083 20.5228Z" fill="white"/>
<path d="M17.5379 14.0898C15.6371 14.0898 14.0908 15.6363 14.0908 17.5369C14.0908 19.4377 15.6373 20.9841 17.5379 20.9841C19.4387 20.9841 20.9851 19.4377 20.9851 17.5369C20.985 15.6363 19.4387 14.0898 17.5379 14.0898ZM17.5379 18.7869C16.8487 18.7869 16.2881 18.2261 16.2881 17.5369C16.2881 16.8477 16.8488 16.2871 17.5379 16.2871C18.2271 16.2871 18.7878 16.8479 18.7878 17.5369C18.7877 18.2263 18.2271 18.7869 17.5379 18.7869Z" fill="white"/>
<path d="M25.6058 56.363C25.1161 52.75 22.2495 49.8834 18.6365 49.3937V46.8936C18.6365 46.2868 18.1446 45.7949 17.5378 45.7949C16.9311 45.7949 16.4392 46.2868 16.4392 46.8936V49.3937C12.8262 49.8834 9.95962 52.75 9.46992 56.363H6.96973C6.36299 56.363 5.87109 56.8549 5.87109 57.4617C5.87109 58.0684 6.36299 58.5603 6.96973 58.5603H9.46992C9.95962 62.1733 12.826 65.0399 16.4392 65.5296V68.0298C16.4392 68.6365 16.9311 69.1284 17.5378 69.1284C18.1446 69.1284 18.6365 68.6365 18.6365 68.0298V65.5296C22.2495 65.0399 25.1161 62.1733 25.6058 58.5603H28.106C28.7127 58.5603 29.2046 58.0684 29.2046 57.4617C29.2046 56.8549 28.7127 56.363 28.106 56.363H25.6058ZM18.6365 63.3051V62.1587C18.6365 61.552 18.1446 61.0601 17.5378 61.0601C16.9311 61.0601 16.4392 61.552 16.4392 62.1587V63.3051C14.0398 62.8549 12.1447 60.9599 11.6944 58.5603H12.8408C13.4476 58.5603 13.9395 58.0684 13.9395 57.4617C13.9395 56.8549 13.4476 56.363 12.8408 56.363H11.6944C12.1446 53.9635 14.0396 52.0684 16.4392 51.6183V52.7647C16.4392 53.3714 16.9311 53.8633 17.5378 53.8633C18.1446 53.8633 18.6365 53.3714 18.6365 52.7647V51.6183C21.036 52.0684 22.9311 53.9635 23.3813 56.363H22.2349C21.6281 56.363 21.1362 56.8549 21.1362 57.4617C21.1362 58.0684 21.6281 58.5603 22.2349 58.5603H23.3813C22.931 60.9599 21.0359 62.8549 18.6365 63.3051Z" fill="white"/>
<path d="M57.4619 48.1445C52.3236 48.1445 48.1436 52.3248 48.1436 57.4628C48.1436 62.6009 52.3238 66.7811 57.4619 66.7811C62.5999 66.7811 66.7802 62.6009 66.7802 57.4628C66.7802 52.3248 62.6001 48.1445 57.4619 48.1445ZM64.4979 56.3642H58.5605V50.4268C61.6091 50.9009 64.0238 53.3157 64.4979 56.3642ZM57.4619 64.5839C53.5352 64.5839 50.3408 61.3894 50.3408 57.4628C50.3408 53.9099 52.9564 50.9566 56.3632 50.4268V57.4628C56.3632 58.0696 56.8551 58.5615 57.4619 58.5615H64.4979C63.9681 61.9683 61.0148 64.5839 57.4619 64.5839Z" fill="white"/>
<path d="M52.7649 25.6812H62.1588C64.0596 25.6812 65.6059 24.1347 65.6059 22.2341V16.3628C65.6059 14.4621 64.0595 12.9158 62.1588 12.9158H60.909V10.4916C60.909 9.23828 59.8895 8.21875 58.6362 8.21875H56.2877C55.0344 8.21875 54.0147 9.23828 54.0147 10.4916V12.9156H52.7649C50.8642 12.9156 49.3179 14.4621 49.3179 16.3627V22.2339C49.3179 24.1347 50.8643 25.6812 52.7649 25.6812ZM62.159 23.4839H52.7651C52.0759 23.4839 51.5153 22.9231 51.5153 22.2341V18.8345C51.7053 18.9143 51.9105 18.9917 52.1329 19.0658C52.6974 19.254 53.3323 19.4084 54.015 19.5273V19.8856C54.015 20.4924 54.5069 20.9843 55.1137 20.9843C55.7204 20.9843 56.2123 20.4924 56.2123 19.8856V19.7742C56.6222 19.7973 57.0396 19.8099 57.4621 19.8099C57.8846 19.8099 58.3021 19.7975 58.7119 19.7742V19.8856C58.7119 20.4924 59.2038 20.9843 59.8105 20.9843C60.4173 20.9843 60.9092 20.4924 60.9092 19.8856V19.5273C61.5919 19.4084 62.2268 19.254 62.7914 19.0658C63.0137 18.9917 63.2189 18.9143 63.4088 18.8345V22.2341C63.4088 22.9231 62.848 23.4839 62.159 23.4839ZM56.2122 10.4916C56.2122 10.4499 56.2461 10.416 56.2879 10.416H58.6363C58.6781 10.416 58.7119 10.4499 58.7119 10.4916V12.9156H56.2122V10.4916ZM52.7649 15.1129H62.1588C62.8251 15.1129 63.3697 15.6375 63.4053 16.295C63.0941 16.7115 61.0795 17.6126 57.462 17.6126C53.8442 17.6126 51.8296 16.7115 51.5185 16.295C51.5541 15.6375 52.0987 15.1129 52.7649 15.1129Z" fill="white"/>
</svg>
