<svg width="75" height="75" viewBox="0 0 75 75" fill="none" xmlns="http://www.w3.org/2000/svg">
<path d="M50.52 38.0983C51.1269 38.0983 51.6187 37.6064 51.6187 36.9997V29.0656C51.6187 28.6077 51.3346 28.1977 50.9059 28.037L37.8841 23.154C37.6353 23.0607 37.3615 23.0607 37.1125 23.154L24.0907 28.037C23.662 28.1979 23.3779 28.6077 23.3779 29.0656V32.593C23.3779 33.1997 23.8697 33.6916 24.4766 33.6916C25.0834 33.6916 25.5752 33.1997 25.5752 32.593V30.651L36.3997 34.7101V49.2325L25.5752 45.1734V37.7323C25.5752 37.1255 25.0834 36.6336 24.4766 36.6336C23.8697 36.6336 23.3779 37.1255 23.3779 37.7323V45.9348C23.3779 46.3927 23.662 46.8027 24.0907 46.9634L37.1125 51.8465C37.1126 51.8456 37.1129 51.8444 37.113 51.8434C37.2368 51.8898 37.3669 51.9163 37.4985 51.9163C37.6284 51.9163 37.759 51.8933 37.8841 51.8463L50.9059 46.9633C51.3346 46.8024 51.6187 46.3926 51.6187 45.9347V42.1205C51.6187 41.5137 51.1269 41.0219 50.52 41.0219C49.9132 41.0219 49.4214 41.5137 49.4214 42.1205V45.1732L38.5969 49.2325V34.7101L49.4214 30.651V36.9997C49.4214 37.6066 49.9132 38.0983 50.52 38.0983ZM37.4983 32.7755L27.6056 29.0658L37.4983 25.3559L47.391 29.0658L37.4983 32.7755Z" fill="white"/>
<path d="M36.4006 10.9658V18.8555C36.4006 19.4622 36.8924 19.9541 37.4993 19.9541C38.1062 19.9541 38.5979 19.4622 38.5979 18.8555V10.9658C41.127 10.4547 43.0371 8.21529 43.0371 5.53785C43.0371 2.48423 40.5529 0 37.4993 0C34.4457 0 31.9614 2.48423 31.9614 5.53785C31.9614 8.21529 33.8716 10.4547 36.4006 10.9658ZM37.4993 2.19727C39.3412 2.19727 40.8399 3.6958 40.8399 5.53785C40.8399 7.37989 39.3412 8.87843 37.4993 8.87843C35.6574 8.87843 34.1587 7.37989 34.1587 5.53785C34.1587 3.6958 35.6574 2.19727 37.4993 2.19727Z" fill="white"/>
<path d="M58.6356 51.0272C56.933 51.0272 55.3595 51.5892 54.0903 52.5376L51.4605 49.9077C51.0313 49.4787 50.3358 49.4787 49.9068 49.9077C49.4777 50.3368 49.4777 51.0324 49.9068 51.4613L52.5367 54.0912C51.5884 55.3603 51.0263 56.934 51.0263 58.6364C51.0263 62.8324 54.44 66.2459 58.6358 66.2459C62.8315 66.2459 66.2452 62.8324 66.2452 58.6364C66.2452 54.4405 62.8315 51.0272 58.6356 51.0272ZM58.6356 64.0488C55.6513 64.0488 53.2235 61.6208 53.2235 58.6366C53.2235 55.6524 55.6513 53.2244 58.6356 53.2244C61.6199 53.2244 64.0478 55.6524 64.0478 58.6366C64.0478 61.6208 61.6199 64.0488 58.6356 64.0488Z" fill="white"/>
<path d="M16.3647 23.9726C18.0672 23.9726 19.6408 23.4106 20.9099 22.4622L23.5398 25.0921C23.7544 25.3065 24.0356 25.4139 24.3167 25.4139C24.5978 25.4139 24.8791 25.3067 25.0937 25.0921C25.5227 24.663 25.5227 23.9674 25.0937 23.5384L22.4638 20.9086C23.4122 19.6395 23.9742 18.0658 23.9742 16.3633C23.9742 12.1674 20.5606 8.75391 16.3648 8.75391C12.169 8.75391 8.75537 12.1674 8.75537 16.3633C8.75537 20.5592 12.1688 23.9726 16.3647 23.9726ZM16.3647 10.951C19.349 10.951 21.7768 13.379 21.7768 16.3632C21.7768 19.3474 19.349 21.7754 16.3647 21.7754C13.3803 21.7754 10.9525 19.3474 10.9525 16.3632C10.9525 13.379 13.3803 10.951 16.3647 10.951Z" fill="white"/>
<path d="M38.5979 64.0332V56.1436C38.5979 55.5368 38.1062 55.0449 37.4993 55.0449C36.8924 55.0449 36.4006 55.5368 36.4006 56.1436V64.0332C33.8716 64.5443 31.9614 66.7838 31.9614 69.4612C31.9614 72.5148 34.4457 74.999 37.4993 74.999C40.5529 74.999 43.0371 72.5148 43.0371 69.4612C43.0371 66.7838 41.127 64.5443 38.5979 64.0332ZM37.4993 72.8018C35.6574 72.8018 34.1587 71.3032 34.1587 69.4612C34.1587 67.6192 35.6574 66.1206 37.4993 66.1206C39.3412 66.1206 40.8399 67.6192 40.8399 69.4612C40.8399 71.3032 39.3412 72.8018 37.4993 72.8018Z" fill="white"/>
<path d="M69.4607 31.9629C66.7833 31.9629 64.5438 33.873 64.0327 36.4021H56.1431C55.5362 36.4021 55.0444 36.894 55.0444 37.5007C55.0444 38.1075 55.5362 38.5994 56.1431 38.5994H64.0327C64.5438 41.1284 66.7833 43.0386 69.4607 43.0386C72.5143 43.0386 74.9986 40.5544 74.9986 37.5007C74.9986 34.4471 72.5143 31.9629 69.4607 31.9629ZM69.4607 40.8413C67.6188 40.8413 66.1201 39.3428 66.1201 37.5007C66.1201 35.6587 67.6187 34.1602 69.4607 34.1602C71.3027 34.1602 72.8013 35.6587 72.8013 37.5007C72.8013 39.3428 71.3027 40.8413 69.4607 40.8413Z" fill="white"/>
<path d="M10.9658 38.5994H18.8555C19.4624 38.5994 19.9541 38.1075 19.9541 37.5007C19.9541 36.894 19.4624 36.4021 18.8555 36.4021H10.9658C10.4547 33.873 8.21529 31.9629 5.53785 31.9629C2.48423 31.9629 0 34.4471 0 37.5007C0 40.5544 2.48423 43.0386 5.53785 43.0386C8.21529 43.0386 10.4547 41.1284 10.9658 38.5994ZM5.53785 40.8413C3.6958 40.8413 2.19727 39.3428 2.19727 37.5007C2.19727 35.6587 3.6958 34.1602 5.53785 34.1602C7.37989 34.1602 8.87828 35.6587 8.87828 37.5007C8.87828 39.3428 7.37974 40.8413 5.53785 40.8413Z" fill="white"/>
<path d="M50.6837 25.414C50.9648 25.414 51.2461 25.3068 51.4607 25.0922L54.0905 22.4624C55.3596 23.4107 56.9333 23.9728 58.6358 23.9728C62.8317 23.9728 66.2452 20.5592 66.2452 16.3633C66.2452 12.1674 62.8315 8.75391 58.6358 8.75391C54.44 8.75391 51.0263 12.1674 51.0263 16.3633C51.0263 18.0659 51.5884 19.6395 52.5367 20.9086L49.9068 23.5384C49.4777 23.9675 49.4777 24.6631 49.9068 25.0921C50.1214 25.3068 50.4026 25.414 50.6837 25.414ZM58.6358 10.9512C61.6201 10.9512 64.0479 13.3792 64.0479 16.3633C64.0479 19.3475 61.6201 21.7755 58.6358 21.7755C55.6514 21.7755 53.2236 19.3475 53.2236 16.3633C53.2236 13.3792 55.6514 10.9512 58.6358 10.9512Z" fill="white"/>
<path d="M23.5399 49.9077L20.9101 52.5375C19.6409 51.5892 18.0672 51.0271 16.3648 51.0271C12.1689 51.0271 8.75537 54.4407 8.75537 58.6366C8.75537 62.8325 12.169 66.246 16.3648 66.246C20.5606 66.246 23.9742 62.8325 23.9742 58.6366C23.9742 56.934 23.4122 55.3604 22.4638 54.0913L25.0937 51.4615C25.5227 51.0324 25.5227 50.3368 25.0937 49.9079C24.6646 49.4787 23.9691 49.4787 23.5399 49.9077ZM16.3648 64.0487C13.3805 64.0487 10.9526 61.6208 10.9526 58.6366C10.9526 55.6524 13.3805 53.2244 16.3648 53.2244C19.3491 53.2244 21.777 55.6524 21.777 58.6366C21.777 61.6208 19.3491 64.0487 16.3648 64.0487Z" fill="white"/>
</svg>
