<svg width="75" height="75" viewBox="0 0 75 75" fill="none" xmlns="http://www.w3.org/2000/svg">
<path d="M4.39453 37.5C4.39453 19.2456 19.2456 4.39453 37.5 4.39453C44.3653 4.39453 50.9126 6.47622 56.4252 10.3399H52.1663C50.9528 10.3399 49.969 11.3237 49.969 12.5372C49.969 13.7506 50.9528 14.7344 52.1663 14.7344H62.463C63.6765 14.7344 64.6603 13.7506 64.6603 12.5372V2.24048C64.6603 1.027 63.6765 0.0432129 62.463 0.0432129C61.2495 0.0432129 60.2657 1.027 60.2657 2.24048V7.71006C53.7579 2.70981 45.8364 0 37.5 0C27.4834 0 18.0664 3.90073 10.9834 10.9834C3.90073 18.0664 0 27.4834 0 37.5C0 44.0802 1.73892 50.5638 5.02881 56.2497C5.43604 56.9537 6.17402 57.3469 6.93267 57.3469C7.3062 57.3469 7.68472 57.2515 8.03115 57.0511C9.08145 56.4434 9.44019 55.0992 8.83257 54.0488C5.92925 49.031 4.39453 43.3084 4.39453 37.5Z" fill="white"/>
<path d="M69.9711 18.7504C69.3632 17.7 68.0188 17.3414 66.9688 17.9492C65.9185 18.5569 65.5598 19.9011 66.1674 20.9515C69.0707 25.969 70.6054 31.6914 70.6054 37.5001C70.6054 55.7546 55.7544 70.6056 37.4999 70.6056C30.6353 70.6056 24.0892 68.5233 18.5771 64.6602H22.8336C24.0471 64.6602 25.0309 63.6765 25.0309 62.463C25.0309 61.2495 24.0471 60.2657 22.8336 60.2657H12.5371C11.3236 60.2657 10.3398 61.2495 10.3398 62.463V72.7597C10.3398 73.9731 11.3236 74.9569 12.5371 74.9569C13.7506 74.9569 14.7344 73.9731 14.7344 72.7597V67.2847C21.2421 72.2865 29.1625 75.0001 37.4999 75.0001C47.5165 75.0001 56.9336 71.0994 64.0165 64.0167C71.0992 56.9338 74.9999 47.5167 74.9999 37.5001C74.9999 30.9196 73.261 24.4361 69.9711 18.7504Z" fill="white"/>
<path d="M57.043 33.0854C57.1937 32.5225 57.1148 31.9228 56.8234 31.4181L52.4289 23.8065C52.1375 23.3019 51.6575 22.9336 51.0947 22.7827C50.5317 22.632 49.932 22.7108 49.4274 23.0023L46.926 24.4465C46.0364 23.8011 45.0894 23.2523 44.0919 22.8045V19.9219C44.0919 18.7084 43.1081 17.7246 41.8946 17.7246H33.1055C31.892 17.7246 30.9083 18.7084 30.9083 19.9219V22.8044C29.9107 23.2523 28.9638 23.8009 28.0741 24.4463L25.5727 23.0021C25.0681 22.7106 24.4678 22.6317 23.9054 22.7826C23.3425 22.9333 22.8626 23.3016 22.5712 23.8063L18.1767 31.418C17.8854 31.9226 17.8064 32.5225 17.9571 33.0853C18.108 33.6482 18.4763 34.1281 18.9809 34.4194L21.4701 35.8564C21.4146 36.4021 21.3868 36.9511 21.3868 37.5C21.3868 38.0489 21.4146 38.5979 21.4701 39.1433L18.9809 40.5803C18.4763 40.8716 18.108 41.3517 17.9571 41.9145C17.8064 42.4774 17.8854 43.0771 18.1767 43.5817L22.5712 51.1934C22.8626 51.698 23.3426 52.0663 23.9054 52.2171C24.4685 52.3682 25.0682 52.2891 25.5727 51.9976L28.0741 50.5534C28.9637 51.1989 29.9107 51.7475 30.9083 52.1953V55.0781C30.9083 56.2916 31.892 57.2754 33.1055 57.2754H41.8946C43.1081 57.2754 44.0919 56.2916 44.0919 55.0781V52.1956C45.0894 51.7478 46.0363 51.1991 46.926 50.5537L49.4274 51.9978C49.9319 52.2892 50.532 52.3682 51.0947 52.2174C51.6576 52.0667 52.1375 51.6984 52.4289 51.1937L56.8234 43.582C57.1148 43.0774 57.1937 42.4775 57.043 41.9147C56.8921 41.3518 56.5238 40.8719 56.0192 40.5806L53.53 39.1436C53.5855 38.5979 53.6133 38.0489 53.6133 37.5C53.6133 36.9511 53.5855 36.4021 53.53 35.8567L56.0192 34.4197C56.5238 34.1282 56.8921 33.6483 57.043 33.0854ZM48.9816 35.1422C49.139 35.9131 49.2188 36.7065 49.2188 37.5C49.2188 38.2935 49.139 39.0869 48.9816 39.8578C48.7924 40.7842 49.217 41.7277 50.0357 42.2004L51.919 43.2876L49.7217 47.0933L47.8228 45.997C47.0037 45.524 45.9733 45.6284 45.2655 46.2565C44.0672 47.3202 42.6995 48.1125 41.2004 48.6117C40.3027 48.9105 39.6972 49.7503 39.6972 50.6965V52.8809H35.3026V50.6965C35.3026 49.7505 34.6971 48.9105 33.7994 48.6117C32.3003 48.1125 30.9326 47.3202 29.7343 46.2565C29.0267 45.6283 27.9963 45.524 27.177 45.997L25.2781 47.0933L23.0809 43.2876L24.9641 42.2004C25.7828 41.7277 26.2074 40.7842 26.0182 39.8578C25.8611 39.0869 25.7813 38.2935 25.7813 37.5C25.7813 36.7065 25.8611 35.9131 26.0185 35.1422C26.2077 34.2158 25.7831 33.2723 24.9644 32.7996L23.0812 31.7124L25.2784 27.9067L27.1773 29.003C27.9966 29.4762 29.0268 29.3717 29.7346 28.7435C30.9329 27.6798 32.3006 26.8875 33.7999 26.3883C34.6974 26.0893 35.3029 25.2495 35.3029 24.3035V22.1191H39.6975V24.3035C39.6975 25.2495 40.303 26.0893 41.2005 26.3883C42.6998 26.8875 44.0675 27.6798 45.2658 28.7435C45.9734 29.3717 47.0038 29.476 47.8231 29.003L49.722 27.9067L51.9192 31.7124L50.036 32.7996C49.217 33.2723 48.7924 34.2158 48.9816 35.1422Z" fill="white"/>
<path d="M37.5 29.4434C33.0576 29.4434 29.4434 33.0576 29.4434 37.5C29.4434 41.9424 33.0576 45.5566 37.5 45.5566C41.9424 45.5566 45.5566 41.9424 45.5566 37.5C45.5566 33.0576 41.9424 29.4434 37.5 29.4434ZM37.5 41.1621C35.4807 41.1621 33.8379 39.5193 33.8379 37.5C33.8379 35.4807 35.4807 33.8379 37.5 33.8379C39.5193 33.8379 41.1621 35.4807 41.1621 37.5C41.1621 39.5193 39.5193 41.1621 37.5 41.1621Z" fill="white"/>
</svg>
