<svg width="93" height="75" viewBox="0 0 93 75" fill="none" xmlns="http://www.w3.org/2000/svg">
<path d="M46.5 24C39.057 24 33 30.057 33 37.5C33 44.943 39.057 51 46.5 51C53.943 51 60 44.943 60 37.5C60 30.057 53.943 24 46.5 24ZM46.5 48C40.71 48 36 43.29 36 37.5C36 31.71 40.71 27 46.5 27C52.29 27 57 31.71 57 37.5C57 43.29 52.29 48 46.5 48Z" fill="white"/>
<path d="M79.5 15H91.5C92.328 15 93 14.328 93 13.5V1.5C93 0.672 92.328 0 91.5 0H79.5C78.672 0 78 0.672 78 1.5V6H73.5C72.672 6 72 6.672 72 7.5V36H70.5V34.5C70.5 33.7485 69.9435 33.1125 69.198 33.0135L65.3505 32.5005C64.908 30.8265 64.2405 29.223 63.3585 27.7125L65.7225 24.6225C66.1785 24.0255 66.123 23.1825 65.592 22.6515L61.3485 18.408C60.8175 17.8755 59.973 17.82 59.3775 18.2775L56.2875 20.6415C54.777 19.761 53.1735 19.0935 51.4995 18.6495L50.9865 14.802C50.8875 14.0565 50.2515 13.5 49.5 13.5H43.5C42.7485 13.5 42.1125 14.0565 42.0135 14.802L41.5005 18.6495C39.8265 19.092 38.223 19.7595 36.7125 20.6415L33.6225 18.2775C33.0255 17.8215 32.1825 17.877 31.6515 18.408L27.408 22.6515C26.877 23.1825 26.82 24.027 27.2775 24.6225L29.6415 27.7125C28.761 29.223 28.0935 30.8265 27.6495 32.5005L23.802 33.0135C23.0565 33.1125 22.5 33.7485 22.5 34.5V36H21V7.5C21 6.672 20.328 6 19.5 6H15V1.5C15 0.672 14.328 0 13.5 0H1.5C0.672 0 0 0.672 0 1.5V13.5C0 14.328 0.672 15 1.5 15H13.5C14.328 15 15 14.328 15 13.5V9H18V36H15V31.5C15 30.672 14.328 30 13.5 30H1.5C0.672 30 0 30.672 0 31.5V43.5C0 44.328 0.672 45 1.5 45H13.5C14.328 45 15 44.328 15 43.5V39H18V66H15V61.5C15 60.672 14.328 60 13.5 60H1.5C0.672 60 0 60.672 0 61.5V73.5C0 74.328 0.672 75 1.5 75H13.5C14.328 75 15 74.328 15 73.5V69H19.5C20.328 69 21 68.328 21 67.5V39H22.5V40.5C22.5 41.2515 23.0565 41.8875 23.802 41.9865L27.6495 42.4995C28.092 44.1735 28.7595 45.777 29.6415 47.2875L27.2775 50.3775C26.8215 50.9745 26.877 51.8175 27.408 52.3485L31.6515 56.592C32.1825 57.123 33.024 57.1785 33.6225 56.7225L36.7125 54.3585C38.223 55.239 39.8265 55.9065 41.5005 56.3505L42.0135 60.198C42.1125 60.9435 42.7485 61.5 43.5 61.5H49.5C50.2515 61.5 50.8875 60.9435 50.9865 60.198L51.4995 56.3505C53.1735 55.908 54.777 55.2405 56.2875 54.3585L59.3775 56.7225C59.9745 57.18 60.819 57.1245 61.3485 56.592L65.592 52.3485C66.123 51.8175 66.18 50.973 65.7225 50.3775L63.3585 47.2875C64.239 45.777 64.9065 44.1735 65.3505 42.4995L69.198 41.9865C69.9435 41.8875 70.5 41.2515 70.5 40.5V39H72V67.5C72 68.328 72.672 69 73.5 69H78V73.5C78 74.328 78.672 75 79.5 75H91.5C92.328 75 93 74.328 93 73.5V61.5C93 60.672 92.328 60 91.5 60H79.5C78.672 60 78 60.672 78 61.5V66H75V39H78V43.5C78 44.328 78.672 45 79.5 45H91.5C92.328 45 93 44.328 93 43.5V31.5C93 30.672 92.328 30 91.5 30H79.5C78.672 30 78 30.672 78 31.5V36H75V9H78V13.5C78 14.328 78.672 15 79.5 15ZM81 3H90V12H81V3ZM12 12H3V3H12V12ZM12 42H3V33H12V42ZM12 72H3V63H12V72ZM67.5 39.1875L63.93 39.663C63.2985 39.747 62.7885 40.2225 62.6595 40.848C62.2425 42.876 61.443 44.796 60.2865 46.5525C59.9355 47.085 59.961 47.781 60.348 48.288L62.5425 51.1575L60.1575 53.5425L57.288 51.348C56.781 50.961 56.0835 50.9355 55.5525 51.2865C53.796 52.443 51.876 53.2425 49.848 53.6595C49.2225 53.7885 48.7485 54.2985 48.663 54.93L48.1875 58.5H44.814L44.3385 54.93C44.2545 54.2985 43.779 53.7885 43.1535 53.6595C41.1255 53.2425 39.2055 52.443 37.449 51.2865C36.918 50.937 36.222 50.961 35.7135 51.348L32.844 53.5425L30.459 51.1575L32.6535 48.288C33.0405 47.781 33.066 47.085 32.715 46.5525C31.5585 44.796 30.759 42.876 30.342 40.848C30.213 40.2225 29.703 39.7485 29.0715 39.663L25.5 39.1875V35.814L29.07 35.3385C29.7015 35.2545 30.2115 34.779 30.3405 34.1535C30.7575 32.1255 31.557 30.2055 32.7135 28.449C33.0645 27.9165 33.039 27.2205 32.652 26.7135L30.4575 23.844L32.8425 21.459L35.712 23.6535C36.2175 24.0405 36.915 24.0645 37.4475 23.715C39.204 22.5585 41.124 21.759 43.152 21.342C43.7775 21.213 44.2515 20.703 44.337 20.0715L44.8125 16.5H48.186L48.6615 20.07C48.7455 20.7015 49.221 21.2115 49.8465 21.3405C51.8745 21.7575 53.7945 22.557 55.551 23.7135C56.085 24.0645 56.781 24.0405 57.2865 23.652L60.156 21.4575L62.541 23.8425L60.3465 26.712C59.9595 27.219 59.934 27.915 60.285 28.4475C61.4415 30.204 62.241 32.124 62.658 34.152C62.787 34.7775 63.297 35.2515 63.9285 35.337L67.5 35.8125V39.1875ZM81 63H90V72H81V63ZM81 33H90V42H81V33Z" fill="white"/>
</svg>
