<svg width="75" height="75" viewBox="0 0 75 75" fill="none" xmlns="http://www.w3.org/2000/svg">
<path d="M56.7999 34.7854H69.1987C69.4563 35.4357 69.9327 35.9758 70.5458 36.3127C71.1589 36.6496 71.8702 36.7622 72.5573 36.631C73.2445 36.4999 73.8643 36.1332 74.3102 35.5942C74.7561 35.0551 75 34.3775 75 33.678C75 32.9785 74.7561 32.3008 74.3102 31.7618C73.8643 31.2228 73.2445 30.8561 72.5573 30.7249C71.8702 30.5938 71.1589 30.7064 70.5458 31.0432C69.9327 31.3801 69.4563 31.9203 69.1987 32.5706H56.7999V27.135H64.792C65.0856 27.1348 65.3672 27.0181 65.5748 26.8105C65.7824 26.6028 65.8992 26.3213 65.8993 26.0276V18.7316H69.1987C69.4563 19.382 69.9327 19.9221 70.5458 20.259C71.1589 20.5959 71.8702 20.7085 72.5573 20.5773C73.2445 20.4461 73.8643 20.0795 74.3102 19.5405C74.7561 19.0014 75 18.3238 75 17.6243C75 16.9247 74.7561 16.2471 74.3102 15.7081C73.8643 15.1691 73.2445 14.8024 72.5573 14.6712C71.8702 14.5401 71.1589 14.6526 70.5458 14.9895C69.9327 15.3264 69.4563 15.8665 69.1987 16.5169H64.792C64.4983 16.5171 64.2168 16.6338 64.0091 16.8414C63.8015 17.0491 63.6848 17.3306 63.6846 17.6243V24.9203H56.7999V19.3075C56.7997 19.0138 56.683 18.7323 56.4754 18.5246C56.2677 18.317 55.9862 18.2003 55.6925 18.2001H50.0797V11.3154H57.3757C57.6694 11.3152 57.9509 11.1985 58.1586 10.9909C58.3662 10.7832 58.4829 10.5017 58.4831 10.208V5.80133C59.1331 5.54368 59.6729 5.06744 60.0096 4.45464C60.3462 3.84183 60.4586 3.13081 60.3275 2.44403C60.1963 1.75724 59.8298 1.13769 59.291 0.692063C58.7522 0.246435 58.0749 0.0026269 57.3757 0.0026269C56.6765 0.0026269 55.9992 0.246435 55.4605 0.692063C54.9217 1.13769 54.5551 1.75724 54.424 2.44403C54.2928 3.13081 54.4053 3.84183 54.7419 4.45464C55.0786 5.06744 55.6184 5.54368 56.2684 5.80133V9.10067H48.9724C48.6787 9.10084 48.3972 9.21756 48.1895 9.42519C47.9819 9.63283 47.8652 9.9144 47.865 10.208V18.2001H42.4294V5.80197C43.0794 5.54431 43.6192 5.06808 43.9558 4.45527C44.2925 3.84246 44.4049 3.13144 44.2738 2.44466C44.1426 1.75788 43.7761 1.13832 43.2373 0.692695C42.6985 0.247067 42.0212 0.00325964 41.322 0.00325964C40.6228 0.00325964 39.9455 0.247067 39.4067 0.692695C38.868 1.13832 38.5014 1.75788 38.3703 2.44466C38.2391 3.13144 38.3515 3.84246 38.6882 4.45527C39.0249 5.06808 39.5647 5.54431 40.2146 5.80197V18.2001H34.7854V5.80133C35.4357 5.54367 35.9758 5.06728 36.3127 4.45421C36.6496 3.84115 36.7622 3.1298 36.631 2.44267C36.4999 1.75555 36.1332 1.13567 35.5942 0.689806C35.0551 0.243941 34.3775 0 33.678 0C32.9785 0 32.3008 0.243941 31.7618 0.689806C31.2228 1.13567 30.8561 1.75555 30.7249 2.44267C30.5938 3.1298 30.7064 3.84115 31.0432 4.45421C31.3801 5.06728 31.9203 5.54367 32.5706 5.80133V18.2001H27.135V10.208C27.1348 9.9144 27.0181 9.63283 26.8105 9.42519C26.6028 9.21756 26.3213 9.10084 26.0276 9.10067H18.7316V5.80133C19.382 5.54367 19.9221 5.06728 20.259 4.45421C20.5959 3.84115 20.7085 3.1298 20.5773 2.44267C20.4461 1.75555 20.0795 1.13567 19.5405 0.689806C19.0014 0.243941 18.3238 0 17.6243 0C16.9247 0 16.2471 0.243941 15.7081 0.689806C15.1691 1.13567 14.8024 1.75555 14.6712 2.44267C14.5401 3.1298 14.6526 3.84115 14.9895 4.45421C15.3264 5.06728 15.8665 5.54367 16.5169 5.80133V10.208C16.5171 10.5017 16.6338 10.7832 16.8414 10.9909C17.0491 11.1985 17.3306 11.3152 17.6243 11.3154H24.9203V18.2001H19.3075C19.0138 18.2003 18.7323 18.317 18.5246 18.5246C18.317 18.7323 18.2003 19.0138 18.2001 19.3075V24.9203H11.3154V17.6243C11.3152 17.3306 11.1985 17.0491 10.9909 16.8414C10.7832 16.6338 10.5017 16.5171 10.208 16.5169H5.80197C5.54431 15.8667 5.06799 15.3268 4.45506 14.99C3.84212 14.6532 3.13093 14.5407 2.44398 14.6719C1.75703 14.803 1.13731 15.1696 0.691567 15.7085C0.245821 16.2474 0.00194619 16.9249 0.00194619 17.6243C0.00194619 18.3236 0.245821 19.0011 0.691567 19.54C1.13731 20.0789 1.75703 20.4455 2.44398 20.5767C3.13093 20.7078 3.84212 20.5953 4.45506 20.2585C5.06799 19.9218 5.54431 19.3818 5.80197 18.7316H9.10067V26.0276C9.10084 26.3213 9.21756 26.6028 9.42519 26.8105C9.63283 27.0181 9.9144 27.1348 10.208 27.135H18.2001V32.5706H5.80197C5.54431 31.9206 5.06808 31.3808 4.45527 31.0442C3.84246 30.7075 3.13144 30.5951 2.44466 30.7262C1.75788 30.8574 1.13832 31.2239 0.692695 31.7627C0.247067 32.3015 0.00325964 32.9788 0.00325964 33.678C0.00325964 34.3772 0.247067 35.0545 0.692695 35.5933C1.13832 36.1321 1.75788 36.4986 2.44466 36.6297C3.13144 36.7609 3.84246 36.6485 4.45527 36.3118C5.06808 35.9752 5.54431 35.4353 5.80197 34.7854H18.2001V40.2146H5.80133C5.54367 39.5643 5.06728 39.0242 4.45421 38.6873C3.84115 38.3504 3.1298 38.2378 2.44267 38.369C1.75555 38.5001 1.13567 38.8668 0.689806 39.4058C0.243941 39.9449 0 40.6225 0 41.322C0 42.0215 0.243941 42.6992 0.689806 43.2382C1.13567 43.7772 1.75555 44.1439 2.44267 44.2751C3.1298 44.4062 3.84115 44.2937 4.45421 43.9568C5.06728 43.6199 5.54367 43.0797 5.80133 42.4294H18.2001V47.865H10.208C9.9144 47.8652 9.63283 47.9819 9.42519 48.1895C9.21756 48.3972 9.10084 48.6787 9.10067 48.9724V56.2684H5.80133C5.54367 55.618 5.06728 55.0779 4.45421 54.741C3.84115 54.4041 3.1298 54.2915 2.44267 54.4227C1.75555 54.5539 1.13567 54.9205 0.689806 55.4595C0.243941 55.9986 0 56.6762 0 57.3757C0 58.0753 0.243941 58.7529 0.689806 59.2919C1.13567 59.8309 1.75555 60.1976 2.44267 60.3288C3.1298 60.4599 3.84115 60.3474 4.45421 60.0105C5.06728 59.6736 5.54367 59.1335 5.80133 58.4831H10.208C10.5017 58.4829 10.7832 58.3662 10.9909 58.1586C11.1985 57.9509 11.3152 57.6694 11.3154 57.3757V50.0797H18.2001V55.6925C18.2003 55.9862 18.317 56.2677 18.5246 56.4754C18.7323 56.683 19.0138 56.7997 19.3075 56.7999H24.9203V63.6846H17.6243C17.3306 63.6848 17.0491 63.8015 16.8414 64.0091C16.6338 64.2168 16.5171 64.4983 16.5169 64.792V69.1987C15.8669 69.4563 15.3271 69.9326 14.9904 70.5454C14.6538 71.1582 14.5414 71.8692 14.6725 72.556C14.8037 73.2428 15.1702 73.8623 15.709 74.3079C16.2478 74.7536 16.9251 74.9974 17.6243 74.9974C18.3235 74.9974 19.0008 74.7536 19.5395 74.3079C20.0783 73.8623 20.4449 73.2428 20.576 72.556C20.7072 71.8692 20.5947 71.1582 20.2581 70.5454C19.9214 69.9326 19.3816 69.4563 18.7316 69.1987V65.8993H26.0276C26.3213 65.8992 26.6028 65.7824 26.8105 65.5748C27.0181 65.3672 27.1348 65.0856 27.135 64.792V56.7999H32.5706V69.198C31.9206 69.4557 31.3808 69.9319 31.0442 70.5447C30.7075 71.1575 30.5951 71.8686 30.7262 72.5553C30.8574 73.2421 31.2239 73.8617 31.7627 74.3073C32.3015 74.7529 32.9788 74.9967 33.678 74.9967C34.3772 74.9967 35.0545 74.7529 35.5933 74.3073C36.1321 73.8617 36.4986 73.2421 36.6297 72.5553C36.7609 71.8686 36.6485 71.1575 36.3118 70.5447C35.9752 69.9319 35.4353 69.4557 34.7854 69.198V56.7999H40.2146V69.1987C39.5643 69.4563 39.0242 69.9327 38.6873 70.5458C38.3504 71.1589 38.2378 71.8702 38.369 72.5573C38.5001 73.2445 38.8668 73.8643 39.4058 74.3102C39.9449 74.7561 40.6225 75 41.322 75C42.0215 75 42.6992 74.7561 43.2382 74.3102C43.7772 73.8643 44.1439 73.2445 44.2751 72.5573C44.4062 71.8702 44.2937 71.1589 43.9568 70.5458C43.6199 69.9327 43.0797 69.4563 42.4294 69.1987V56.7999H47.865V64.792C47.8652 65.0856 47.9819 65.3672 48.1895 65.5748C48.3972 65.7824 48.6787 65.8992 48.9724 65.8993H56.2684V69.1987C55.6182 69.4563 55.0782 69.9326 54.7415 70.5456C54.4047 71.1585 54.2922 71.8697 54.4233 72.5567C54.5545 73.2436 54.9211 73.8633 55.46 74.3091C55.9989 74.7548 56.6764 74.9987 57.3757 74.9987C58.0751 74.9987 58.7526 74.7548 59.2915 74.3091C59.8304 73.8633 60.197 73.2436 60.3281 72.5567C60.4593 71.8697 60.3468 71.1585 60.01 70.5456C59.6732 69.9326 59.1333 69.4563 58.4831 69.1987V64.792C58.4829 64.4983 58.3662 64.2168 58.1586 64.0091C57.9509 63.8015 57.6694 63.6848 57.3757 63.6846H50.0797V56.7999H55.6925C55.9862 56.7997 56.2677 56.683 56.4754 56.4754C56.683 56.2677 56.7997 55.9862 56.7999 55.6925V50.0797H63.6846V57.3757C63.6848 57.6694 63.8015 57.9509 64.0091 58.1586C64.2168 58.3662 64.4983 58.4829 64.792 58.4831H69.1987C69.4563 59.1331 69.9326 59.6729 70.5454 60.0096C71.1582 60.3462 71.8692 60.4586 72.556 60.3275C73.2428 60.1963 73.8623 59.8298 74.3079 59.291C74.7536 58.7522 74.9974 58.0749 74.9974 57.3757C74.9974 56.6765 74.7536 55.9992 74.3079 55.4605C73.8623 54.9217 73.2428 54.5551 72.556 54.424C71.8692 54.2928 71.1582 54.4053 70.5454 54.7419C69.9326 55.0786 69.4563 55.6184 69.1987 56.2684H65.8993V48.9724C65.8992 48.6787 65.7824 48.3972 65.5748 48.1895C65.3672 47.9819 65.0856 47.8652 64.792 47.865H56.7999V42.4294H69.198C69.4557 43.0794 69.9319 43.6192 70.5447 43.9558C71.1575 44.2925 71.8686 44.4049 72.5553 44.2738C73.2421 44.1426 73.8617 43.7761 74.3073 43.2373C74.7529 42.6985 74.9967 42.0212 74.9967 41.322C74.9967 40.6228 74.7529 39.9455 74.3073 39.4067C73.8617 38.868 73.2421 38.5014 72.5553 38.3703C71.8686 38.2391 71.1575 38.3515 70.5447 38.6882C69.9319 39.0249 69.4557 39.5647 69.198 40.2146H56.7999V34.7854ZM71.9867 32.887C72.1432 32.887 72.2961 32.9334 72.4262 33.0203C72.5562 33.1072 72.6576 33.2308 72.7175 33.3753C72.7773 33.5198 72.793 33.6789 72.7625 33.8323C72.732 33.9857 72.6566 34.1267 72.546 34.2373C72.4354 34.3479 72.2945 34.4232 72.141 34.4538C71.9876 34.4843 71.8286 34.4686 71.684 34.4088C71.5395 34.3489 71.4159 34.2475 71.329 34.1174C71.2421 33.9874 71.1957 33.8344 71.1957 33.678C71.1957 33.4681 71.279 33.2668 71.4273 33.1182C71.5756 32.9697 71.7768 32.8861 71.9867 32.8857V32.887ZM71.9867 16.8339C72.1432 16.8339 72.2961 16.8803 72.4262 16.9672C72.5562 17.0541 72.6576 17.1777 72.7175 17.3222C72.7773 17.4667 72.793 17.6258 72.7625 17.7792C72.732 17.9326 72.6566 18.0736 72.546 18.1842C72.4354 18.2948 72.2945 18.3702 72.141 18.4007C71.9876 18.4312 71.8286 18.4155 71.684 18.3557C71.5395 18.2958 71.4159 18.1944 71.329 18.0643C71.2421 17.9343 71.1957 17.7813 71.1957 17.6249C71.1957 17.415 71.279 17.2137 71.4273 17.0651C71.5756 16.9166 71.7768 16.833 71.9867 16.8327V16.8339ZM57.3764 2.22231C57.5328 2.22231 57.6857 2.2687 57.8158 2.35561C57.9459 2.44253 58.0473 2.56606 58.1071 2.71059C58.167 2.85513 58.1827 3.01417 58.1521 3.1676C58.1216 3.32104 58.0463 3.46197 57.9357 3.5726C57.8251 3.68322 57.6841 3.75855 57.5307 3.78907C57.3772 3.81959 57.2182 3.80393 57.0737 3.74406C56.9291 3.68419 56.8056 3.58281 56.7187 3.45273C56.6318 3.32266 56.5854 3.16973 56.5854 3.01329C56.5857 2.80361 56.6692 2.60262 56.8174 2.45435C56.9657 2.30609 57.1667 2.22264 57.3764 2.22231ZM41.3233 2.22231C41.4797 2.22231 41.6326 2.2687 41.7627 2.35561C41.8928 2.44253 41.9942 2.56606 42.054 2.71059C42.1139 2.85513 42.1296 3.01417 42.0991 3.1676C42.0685 3.32104 41.9932 3.46197 41.8826 3.5726C41.772 3.68322 41.631 3.75855 41.4776 3.78907C41.3242 3.81959 41.1651 3.80393 41.0206 3.74406C40.876 3.68419 40.7525 3.58281 40.6656 3.45273C40.5787 3.32266 40.5323 3.16973 40.5323 3.01329C40.5326 2.80361 40.6161 2.60262 40.7643 2.45435C40.9126 2.30609 41.1136 2.22264 41.3233 2.22231ZM33.6767 2.22231C33.8332 2.22231 33.9861 2.2687 34.1162 2.35561C34.2462 2.44253 34.3476 2.56606 34.4075 2.71059C34.4674 2.85513 34.483 3.01417 34.4525 3.1676C34.422 3.32104 34.3466 3.46197 34.236 3.5726C34.1254 3.68322 33.9845 3.75855 33.831 3.78907C33.6776 3.81959 33.5186 3.80393 33.374 3.74406C33.2295 3.68419 33.106 3.58281 33.019 3.45273C32.9321 3.32266 32.8857 3.16973 32.8857 3.01329C32.8859 2.80356 32.9693 2.60247 33.1176 2.45417C33.2659 2.30587 33.467 2.22248 33.6767 2.22231ZM17.6236 2.22231C17.7801 2.22231 17.933 2.2687 18.0631 2.35561C18.1932 2.44253 18.2945 2.56606 18.3544 2.71059C18.4143 2.85513 18.4299 3.01417 18.3994 3.1676C18.3689 3.32104 18.2936 3.46197 18.1829 3.5726C18.0723 3.68322 17.9314 3.75855 17.7779 3.78907C17.6245 3.81959 17.4655 3.80393 17.3209 3.74406C17.1764 3.68419 17.0529 3.58281 16.966 3.45273C16.879 3.32266 16.8327 3.16973 16.8327 3.01329C16.8328 2.80356 16.9162 2.60247 17.0645 2.45417C17.2128 2.30587 17.4139 2.22248 17.6236 2.22231ZM3.01329 18.4146C2.85685 18.4146 2.70392 18.3682 2.57384 18.2813C2.44377 18.1944 2.34239 18.0709 2.28252 17.9263C2.22265 17.7818 2.20699 17.6228 2.23751 17.4693C2.26803 17.3159 2.34336 17.1749 2.45398 17.0643C2.5646 16.9537 2.70554 16.8784 2.85898 16.8478C3.01241 16.8173 3.17145 16.833 3.31598 16.8929C3.46052 16.9527 3.58405 17.0541 3.67096 17.1842C3.75788 17.3143 3.80427 17.4672 3.80427 17.6236C3.8041 17.8334 3.72071 18.0345 3.57241 18.1828C3.42411 18.3311 3.22302 18.4144 3.01329 18.4146ZM3.01329 34.4677C2.85685 34.4677 2.70392 34.4213 2.57384 34.3344C2.44377 34.2475 2.34239 34.1239 2.28252 33.9794C2.22265 33.8349 2.20699 33.6758 2.23751 33.5224C2.26803 33.369 2.34336 33.228 2.45398 33.1174C2.5646 33.0068 2.70554 32.9315 2.85898 32.9009C3.01241 32.8704 3.17145 32.8861 3.31598 32.9459C3.46052 33.0058 3.58405 33.1072 3.67096 33.2373C3.75788 33.3674 3.80427 33.5203 3.80427 33.6767C3.8041 33.8865 3.72071 34.0875 3.57241 34.2358C3.42411 34.3841 3.22302 34.4675 3.01329 34.4677ZM3.01329 42.1143C2.85685 42.1143 2.70392 42.0679 2.57384 41.981C2.44377 41.894 2.34239 41.7705 2.28252 41.626C2.22265 41.4814 2.20699 41.3224 2.23751 41.169C2.26803 41.0155 2.34336 40.8746 2.45398 40.764C2.5646 40.6534 2.70554 40.578 2.85898 40.5475C3.01241 40.517 3.17145 40.5326 3.31598 40.5925C3.46052 40.6524 3.58405 40.7538 3.67096 40.8838C3.75788 41.0139 3.80427 41.1668 3.80427 41.3233C3.80393 41.533 3.72049 41.734 3.57223 41.8822C3.42396 42.0305 3.22297 42.1139 3.01329 42.1143ZM3.01329 58.1674C2.85685 58.1674 2.70392 58.121 2.57384 58.034C2.44377 57.9471 2.34239 57.8236 2.28252 57.6791C2.22265 57.5345 2.20699 57.3755 2.23751 57.2221C2.26803 57.0686 2.34336 56.9277 2.45398 56.8171C2.5646 56.7064 2.70554 56.6311 2.85898 56.6006C3.01241 56.5701 3.17145 56.5857 3.31598 56.6456C3.46052 56.7055 3.58405 56.8069 3.67096 56.9369C3.75788 57.067 3.80427 57.2199 3.80427 57.3764C3.80393 57.586 3.72049 57.787 3.57223 57.9353C3.42396 58.0836 3.22297 58.167 3.01329 58.1674ZM17.6236 72.7777C17.4672 72.7777 17.3143 72.7313 17.1842 72.6444C17.0541 72.5575 16.9527 72.4339 16.8929 72.2894C16.833 72.1449 16.8173 71.9858 16.8478 71.8324C16.8784 71.679 16.9537 71.538 17.0643 71.4274C17.1749 71.3168 17.3159 71.2414 17.4693 71.2109C17.6228 71.1804 17.7818 71.1961 17.9263 71.2559C18.0709 71.3158 18.1944 71.4172 18.2813 71.5473C18.3682 71.6773 18.4146 71.8303 18.4146 71.9867C18.4143 72.1964 18.3308 72.3974 18.1826 72.5457C18.0343 72.6939 17.8333 72.7774 17.6236 72.7777ZM33.6767 72.7777C33.5203 72.7777 33.3674 72.7313 33.2373 72.6444C33.1072 72.5575 33.0058 72.4339 32.9459 72.2894C32.8861 72.1449 32.8704 71.9858 32.9009 71.8324C32.9315 71.679 33.0068 71.538 33.1174 71.4274C33.228 71.3168 33.369 71.2414 33.5224 71.2109C33.6758 71.1804 33.8349 71.1961 33.9794 71.2559C34.1239 71.3158 34.2475 71.4172 34.3344 71.5473C34.4213 71.6773 34.4677 71.8303 34.4677 71.9867C34.4674 72.1964 34.3839 72.3974 34.2357 72.5457C34.0874 72.6939 33.8864 72.7774 33.6767 72.7777ZM41.3233 72.7777C41.1668 72.7777 41.0139 72.7313 40.8838 72.6444C40.7538 72.5575 40.6524 72.4339 40.5925 72.2894C40.5326 72.1449 40.517 71.9858 40.5475 71.8324C40.578 71.679 40.6534 71.538 40.764 71.4274C40.8746 71.3168 41.0155 71.2414 41.169 71.2109C41.3224 71.1804 41.4814 71.1961 41.626 71.2559C41.7705 71.3158 41.894 71.4172 41.981 71.5473C42.0679 71.6773 42.1143 71.8303 42.1143 71.9867C42.1141 72.1964 42.0307 72.3975 41.8824 72.5458C41.7341 72.6941 41.533 72.7775 41.3233 72.7777ZM57.3764 72.7777C57.2199 72.7777 57.067 72.7313 56.9369 72.6444C56.8069 72.5575 56.7055 72.4339 56.6456 72.2894C56.5857 72.1449 56.5701 71.9858 56.6006 71.8324C56.6311 71.679 56.7064 71.538 56.8171 71.4274C56.9277 71.3168 57.0686 71.2414 57.2221 71.2109C57.3755 71.1804 57.5345 71.1961 57.6791 71.2559C57.8236 71.3158 57.9471 71.4172 58.034 71.5473C58.121 71.6773 58.1674 71.8303 58.1674 71.9867C58.1672 72.1964 58.0838 72.3975 57.9355 72.5458C57.7872 72.6941 57.5861 72.7775 57.3764 72.7777ZM71.9867 56.5854C72.1432 56.5854 72.2961 56.6318 72.4262 56.7187C72.5562 56.8056 72.6576 56.9291 72.7175 57.0737C72.7773 57.2182 72.793 57.3772 72.7625 57.5307C72.732 57.6841 72.6566 57.8251 72.546 57.9357C72.4354 58.0463 72.2945 58.1216 72.141 58.1521C71.9876 58.1827 71.8286 58.167 71.684 58.1071C71.5395 58.0473 71.4159 57.9459 71.329 57.8158C71.2421 57.6857 71.1957 57.5328 71.1957 57.3764C71.1959 57.1666 71.2793 56.9655 71.4276 56.8172C71.5759 56.6689 71.777 56.5856 71.9867 56.5854ZM71.9867 40.5323C72.1432 40.5323 72.2961 40.5787 72.4262 40.6656C72.5562 40.7525 72.6576 40.876 72.7175 41.0206C72.7773 41.1651 72.793 41.3242 72.7625 41.4776C72.732 41.631 72.6566 41.772 72.546 41.8826C72.4354 41.9932 72.2945 42.0685 72.141 42.0991C71.9876 42.1296 71.8286 42.1139 71.684 42.054C71.5395 41.9942 71.4159 41.8928 71.329 41.7627C71.2421 41.6326 71.1957 41.4797 71.1957 41.3233C71.1959 41.1135 71.2793 40.9125 71.4276 40.7642C71.5759 40.6159 71.777 40.5325 71.9867 40.5323ZM54.5852 54.5852H20.4148V20.4148H54.5852V54.5852Z" fill="white"/>
<path d="M49.9973 23.8955H25.0024C24.7087 23.8957 24.4272 24.0124 24.2195 24.22C24.0119 24.4277 23.8952 24.7092 23.895 25.0029V49.9978C23.8952 50.2915 24.0119 50.573 24.2195 50.7807C24.4272 50.9883 24.7087 51.105 25.0024 51.1052H49.9973C50.291 51.105 50.5726 50.9883 50.7802 50.7807C50.9878 50.573 51.1046 50.2915 51.1047 49.9978V25.0029C51.1046 24.7092 50.9878 24.4277 50.7802 24.22C50.5726 24.0124 50.291 23.8957 49.9973 23.8955ZM48.89 48.8905H26.1098V26.1103H48.89V48.8905Z" fill="white"/>
<path d="M46.2006 39.1344C46.4943 39.1342 46.7758 39.0175 46.9835 38.8099C47.1911 38.6022 47.3078 38.3207 47.308 38.027V31.7783C47.308 31.4846 47.1913 31.2029 46.9837 30.9952C46.776 30.7876 46.4943 30.6709 46.2006 30.6709C45.9069 30.6709 45.6253 30.7876 45.4176 30.9952C45.2099 31.2029 45.0933 31.4846 45.0933 31.7783V38.027C45.0934 38.3207 45.2102 38.6022 45.4178 38.8099C45.6254 39.0175 45.907 39.1342 46.2006 39.1344Z" fill="white"/>
</svg>
