<svg width="76" height="75" viewBox="0 0 76 75" fill="none" xmlns="http://www.w3.org/2000/svg">
<path d="M15.7258 50.8066C13.9621 50.8066 12.2675 51.35 10.8228 52.3778L12.2262 54.3488C13.2581 53.6141 14.4677 53.226 15.7258 53.226C19.0607 53.226 21.7742 55.9395 21.7742 59.2744C21.7742 60.5325 21.3862 61.7422 20.6514 62.774L22.6224 64.1775C23.6502 62.7327 24.1936 61.0381 24.1936 59.2744C24.1936 54.6064 20.3938 50.8066 15.7258 50.8066Z" fill="white"/>
<path d="M15.7255 65.3226C12.3907 65.3226 9.67717 62.6091 9.67717 59.2742C9.67717 58.0161 10.0652 56.8064 10.8 55.7745L8.82897 54.3711C7.80122 55.8159 7.25781 57.5105 7.25781 59.2742C7.25781 63.9422 11.0575 67.7419 15.7255 67.7419C17.4893 67.7419 19.1839 67.1985 20.6286 66.1708L19.2252 64.1997C18.1933 64.9345 16.9837 65.3226 15.7255 65.3226Z" fill="white"/>
<path d="M71.3709 24.1935C69.7962 24.1935 68.4654 25.2083 67.9646 26.6129H57.8406C57.3397 25.2083 56.009 24.1935 54.4343 24.1935C52.4337 24.1935 50.8052 25.822 50.8052 27.8226C50.8052 28.7334 51.1549 29.5573 51.7113 30.1958L44.165 43.6115C43.9648 43.5761 43.7598 43.5483 43.5484 43.5483C43.0888 43.5483 42.6517 43.6429 42.2453 43.8L39.4232 40.507C39.7309 39.9748 39.9193 39.3665 39.9193 38.7096C39.9193 36.7091 38.2909 35.0806 36.2903 35.0806C35.3576 35.0806 34.5148 35.4445 33.8709 36.0239V29.0033C33.8709 26.3105 32.1385 23.9832 29.5609 23.2089L21.7742 20.874V19.0246C23.9649 17.4907 25.4032 14.9603 25.4032 12.0968V8.83926C26.0831 8.20902 26.659 7.45298 27.0919 6.58766L28.3199 4.13345L25.3707 3.15C24.1416 2.74126 22.9756 2.17009 21.8988 1.45421C20.4724 0.502063 18.8155 0 17.105 0C12.3425 0 8.46537 3.87356 8.46301 8.63607L8.46065 12.3023C8.45947 14.509 9.31711 16.5834 10.8776 18.144C11.2551 18.5214 11.6638 18.8563 12.0968 19.1505V20.874L4.31006 23.2101C1.73241 23.9832 0 26.3116 0 29.0045V41.129H32.1604L25.9909 47.2985L24.4345 45.7415L21.8421 47.4703C21.1705 47.1219 20.47 46.8312 19.7482 46.6015L19.1357 43.5483H12.3147L11.7022 46.6015C10.9792 46.8301 10.2787 47.1219 9.6083 47.4703L7.01589 45.7415L2.19313 50.5642L3.922 53.1566C3.57351 53.8282 3.2829 54.5288 3.05313 55.2505L0 55.8642V62.6852L3.05313 63.2977C3.28172 64.0207 3.57351 64.7212 3.922 65.3916L2.19313 67.984L7.01589 72.8068L9.6083 71.0779C10.2799 71.4264 10.9804 71.717 11.7022 71.9468L12.3159 74.9999H19.1369L19.7494 71.9468C20.4724 71.7182 21.1729 71.4264 21.8433 71.0779L24.4357 72.8068L29.2585 67.984L27.5296 65.3916C27.8781 64.72 28.1687 64.0195 28.3985 63.2977L31.4516 62.684V55.8631L28.3985 55.2505C28.1699 54.5276 27.8781 53.827 27.5296 53.1566L29.2585 50.5642L27.7015 49.009L34.7357 41.9748C35.2088 42.2022 35.7315 42.3387 36.2903 42.3387C36.7498 42.3387 37.1869 42.2442 37.5933 42.087L40.4155 45.38C40.1077 45.9122 39.9193 46.5206 39.9193 47.1774C39.9193 49.1779 41.5478 50.8064 43.5484 50.8064C45.5489 50.8064 47.1774 49.1779 47.1774 47.1774C47.1774 46.2666 46.8277 45.4426 46.2713 44.8041L53.817 31.389C54.019 31.4238 54.224 31.4516 54.4354 31.4516C56.0101 31.4516 57.3409 30.4368 57.8418 29.0322H67.9657C68.4666 30.4368 69.7974 31.4516 71.3721 31.4516C73.3727 31.4516 75.0011 29.8231 75.0011 27.8226C75.0011 25.822 73.3715 24.1935 71.3709 24.1935ZM16.8085 30.2419H17.0613L18.0022 38.7096H15.8676L16.8085 30.2419ZM17.2727 27.8226H16.597L15.7376 25.2461C16.108 25.3441 16.5049 25.4032 16.9355 25.4032C17.3661 25.4032 17.763 25.3441 18.1316 25.2461L17.2727 27.8226ZM17.105 2.41935C18.3377 2.41935 19.5302 2.78084 20.5574 3.46423C21.8102 4.30179 23.1723 4.96688 24.6046 5.44354L24.907 5.54514C23.9868 7.34902 22.1611 8.46773 20.1351 8.46773C19.0743 8.46773 18.0447 8.15586 17.1617 7.56756L14.6047 5.86232L13.7211 6.30355C12.8877 6.72115 11.9857 7.00644 11.0649 7.15056C11.7329 4.43705 14.1883 2.41935 17.105 2.41935ZM10.8812 9.61303C12.1015 9.48249 13.3029 9.15586 14.4216 8.64789L15.8191 9.58054C17.9325 10.9887 20.7204 11.2368 22.9839 10.3537V12.0968C22.9839 15.4316 20.255 18.1451 16.9006 18.1451H16.7187C15.1582 18.1451 13.6921 17.5379 12.5894 16.4346C11.4872 15.3312 10.88 13.864 10.8812 12.3047V9.61303ZM16.7175 20.5645H16.8994C17.7529 20.5645 18.5757 20.4351 19.3536 20.2018V21.4404C19.0548 21.9035 18.2213 22.9838 16.9355 22.9838C15.6496 22.9838 14.8162 21.9035 14.5161 21.4404V20.2609C15.2249 20.457 15.9626 20.5645 16.7175 20.5645ZM2.41935 29.0045C2.41935 27.3884 3.45833 25.9921 5.00586 25.5278L12.5309 23.2703L14.4943 29.1616L13.4334 38.7096H9.67741V29.0322H7.25806V38.7096H2.41935V29.0045ZM31.4516 38.7096H26.6129V29.0322H24.1935V38.7096H20.4375L19.3767 29.1616L21.34 23.2703L28.8651 25.5278C30.4126 25.9909 31.4516 27.3884 31.4516 29.0045V38.7096ZM29.0322 57.8453V60.7018L26.4534 61.2168L26.2656 61.9557C26.0069 62.9699 25.6064 63.9362 25.0754 64.8275L24.6861 65.482L26.1445 67.6728L24.1256 69.6917L21.9348 68.2333L21.2804 68.6226C20.3891 69.1536 19.4227 69.5552 18.4086 69.8127L17.6697 70.0006L17.1546 72.5806H14.2982L13.7831 70.0017L13.0442 69.8139C12.03 69.5552 11.0637 69.1547 10.1724 68.6237L9.51793 68.2345L7.32717 69.6928L5.30828 67.6739L6.76722 65.4832L6.37738 64.8287C5.84638 63.9374 5.44473 62.9711 5.1872 61.9569L4.99937 61.218L2.41935 60.7029V57.8465L4.99818 57.3314L5.18602 56.5925C5.44473 55.5784 5.84519 54.612 6.3762 53.7207L6.76545 53.0663L5.3071 50.8755L7.32598 48.8566L9.51675 50.3156L10.1712 49.9257C11.0625 49.3947 12.0288 48.9931 13.043 48.7355L13.7819 48.5477L14.297 45.9677H17.1534L17.6685 48.5465L18.4074 48.7344C19.4216 48.9931 20.3879 49.3935 21.2792 49.9245L21.9337 50.3138L24.1244 48.8554L26.1433 50.8743L24.6844 53.0651L25.0742 53.7196C25.6052 54.6109 26.0069 55.5772 26.2644 56.5914L26.4522 57.3303L29.0322 57.8453ZM35.0806 38.7096C35.0806 38.0422 35.6228 37.5 36.2903 37.5C36.9577 37.5 37.5 38.0422 37.5 38.7096C37.5 39.3777 36.9577 39.9193 36.2903 39.9193C35.6228 39.9193 35.0806 39.3777 35.0806 38.7096ZM43.5484 48.3871C42.8809 48.3871 42.3387 47.8454 42.3387 47.1774C42.3387 46.5099 42.8809 45.9677 43.5484 45.9677C44.2158 45.9677 44.758 46.5099 44.758 47.1774C44.758 47.8454 44.2158 48.3871 43.5484 48.3871ZM54.4354 29.0322C53.768 29.0322 53.2258 28.4906 53.2258 27.8226C53.2258 27.1551 53.768 26.6129 54.4354 26.6129C55.1029 26.6129 55.6451 27.1551 55.6451 27.8226C55.6451 28.4906 55.1029 29.0322 54.4354 29.0322ZM71.3709 29.0322C70.7035 29.0322 70.1612 28.4906 70.1612 27.8226C70.1612 27.1551 70.7035 26.6129 71.3709 26.6129C72.0384 26.6129 72.5806 27.1551 72.5806 27.8226C72.5806 28.4906 72.0384 29.0322 71.3709 29.0322Z" fill="white"/>
<path d="M70.1613 32.6621H62.9032V72.5814H60.4839V38.7105H53.2258V72.5814H50.8065V56.8556H43.5484V72.5814H41.1291V52.0169H33.871V72.5814H31.4517V75.0008H75V72.5814H70.1613V32.6621ZM65.3226 35.0815H67.742V72.5814H65.3226V35.0815ZM55.6452 41.1298H58.0645V72.5814H55.6452V41.1298ZM45.9678 59.275H48.3871V72.5814H45.9678V59.275ZM36.2904 54.4363H38.7097V72.5814H36.2904V54.4363Z" fill="white"/>
<path d="M26.6128 72.5801H29.0322V74.9995H26.6128V72.5801Z" fill="white"/>
<path d="M19.3549 59.2736C19.3549 57.273 17.7264 55.6445 15.7258 55.6445C13.7252 55.6445 12.0967 57.273 12.0967 59.2736C12.0967 61.2742 13.7252 62.9027 15.7258 62.9027C17.7264 62.9027 19.3549 61.2742 19.3549 59.2736ZM14.5161 59.2736C14.5161 58.6062 15.0583 58.0639 15.7258 58.0639C16.3932 58.0639 16.9355 58.6062 16.9355 59.2736C16.9355 59.9417 16.3932 60.4833 15.7258 60.4833C15.0583 60.4833 14.5161 59.9417 14.5161 59.2736Z" fill="white"/>
<path d="M72.5805 0H53.2256C51.8913 0 50.8063 1.08505 50.8063 2.41935V4.83871H35.0805C33.7462 4.83871 32.6611 5.92375 32.6611 7.25806V19.3548C32.6611 20.6891 33.7462 21.7742 35.0805 21.7742H38.7095V26.6129L45.1607 21.7742H54.4353C55.7696 21.7742 56.8547 20.6891 56.8547 19.3548V16.9355H60.4837V21.7742L66.9349 16.9355H72.5805C73.9148 16.9355 74.9998 15.8504 74.9998 14.5161V2.41935C74.9998 1.08505 73.9148 0 72.5805 0ZM54.4353 19.3548H44.3551L41.1289 21.7742V19.3548H35.0805L35.0781 7.25806H54.4353V19.3548ZM72.5805 14.5161H66.1292L62.903 16.9355V14.5161H56.8547V7.25806C56.8547 5.92375 55.7696 4.83871 54.4353 4.83871H53.2256V2.41935H72.5805V14.5161Z" fill="white"/>
<path d="M61.6934 7.25781H64.1128V9.6772H61.6934V7.25781Z" fill="white"/>
<path d="M66.5322 7.25781H68.9516V9.6772H66.5322V7.25781Z" fill="white"/>
<path d="M37.5 9.67773H52.0161V12.0971H37.5V9.67773Z" fill="white"/>
<path d="M37.5 14.5156H52.0161V16.935H37.5V14.5156Z" fill="white"/>
</svg>
